# xmcd
# Track frame offsets:
# 150
# 16233
# 28763
# 39507
# 52714
# 63920
# 80689
#
# Disc length: 1286 seconds
# Revision: 0
# Processed by: cddbd v1.4PL0 Copyright (c) Steve Scherf et al.
# Submitted via: VisiTrax 2.9.5.180 - For more info visit www.synapsa.com
#
DISCID=4b050407
DTITLE=Various Artist - New Countr Vol. 14 August-September 2001
DYEAR=2001
DGENRE=
TTITLE0=Kelly Spencer - All I want
TTITLE1=Montana Cash - Gonna buy this
TTITLE2=Aldo - King of country rhythm and blues
TTITLE3=Fred McCarty - Stop, look and listen
TTITLE4=Eddie Collins - The shiner beer song
TTITLE5=Jim Arp - They didn't tell me about you
TTITLE6=Denise Richards - You can't hurt me anymore
EXTD=
EXTT0=
EXTT1=
EXTT2=
EXTT3=
EXTT4=
EXTT5=
EXTT6=
PLAYORDER=
